<?xml version="1.0" encoding="utf-8"?>
<!-- Generator: Adobe Illustrator 19.1.0, SVG Export Plug-In . SVG Version: 6.00 Build 0)  -->
<svg version="1.1" id="Layer_1" xmlns="http://www.w3.org/2000/svg" xmlns:xlink="http://www.w3.org/1999/xlink" x="0px" y="0px"
	 viewBox="0 0 360 360" style="enable-background:new 0 0 360 360;" xml:space="preserve">
<style type="text/css">
	.st0{fill:#58595B;}
	.st1{fill:#FFFFFF;}
	.st2{fill:#E55462;}
</style>
<path class="st0" d="M360,45c0,90,0,180,0,270c-120,0-240,0-360,0c0-90,0-180,0-270C120,45,240,45,360,45z M42.8,70.2
	c0.5,0.6,0.8,0.9,1.1,1.2c41.7,42.2,83.3,84.4,125,126.5c6.1,6.2,17.2,6.2,23.4,0.1c42-42.2,83.9-84.5,125.9-126.7
	c0.3-0.3,0.5-0.6,0.9-1.1C227,70.2,135.1,70.2,42.8,70.2z M317.3,291.3c-30.3-31-60.3-61.7-90.6-92.7c-0.4,0.6-0.7,1.1-1.1,1.6
	c-5.2,5.2-10.3,10.4-15.5,15.6c-15.9,15.9-43,15.9-58.9-0.1c-5.4-5.4-10.8-10.9-16.1-16.3c-0.4-0.4-0.8-0.7-1.2-1.2
	c-30.4,31-60.6,61.9-91.1,93.1C134.4,291.3,225.6,291.3,317.3,291.3z M116.2,180.3C85.8,149.6,55.6,119,25.3,88.3
	c0,61.8,0,123.2,0,184.9C55.7,242.1,85.9,211.3,116.2,180.3z M334.8,90.3c-30.2,30.4-60.1,60.5-90.1,90.7
	c30,30.7,59.9,61.4,90.1,92.2C334.8,212.1,334.8,151.4,334.8,90.3z"/>
</svg>
