<?xml version="1.0" encoding="utf-8"?>
<!-- Generator: Adobe Illustrator 19.1.0, SVG Export Plug-In . SVG Version: 6.00 Build 0)  -->
<svg version="1.1" id="Layer_1" xmlns="http://www.w3.org/2000/svg" xmlns:xlink="http://www.w3.org/1999/xlink" x="0px" y="0px"
	 viewBox="0 0 360 360" style="enable-background:new 0 0 360 360;" xml:space="preserve">
<style type="text/css">
	.st0{fill:#58595B;}
	.st1{fill:#FFFFFF;}
	.st2{fill:#E55462;}
</style>
<path class="st0" d="M213.4,263.5c8.6-1.8,16.6-3.1,24.4-5.2c34.4-9.4,53.9-33.1,56.2-68.8c0.6-9.4,0.4-19.1-0.7-28.5
	c-1.3-11.5-6.7-21.7-14.2-30.6c-1.9-2.3-2.4-4.1-1.6-7.1c4.1-13.9,2.8-27.6-2.3-41c-0.5-1.3-2.9-2.7-4.4-2.7
	c-8.6-0.1-16.6,2.7-24.1,6.4c-6.5,3.2-12.6,7.1-19.1,10.4c-1.6,0.8-3.8,1.3-5.4,0.9c-28.1-6.8-56.1-6.9-84.2,0
	c-1.8,0.4-4.2-0.1-5.8-1c-11.8-7.2-23.8-14-37.7-16.4c-8.3-1.4-9.2-0.9-11.4,7c-3.6,12.6-4.2,25.2-0.3,37.9c0.4,1.3-0.1,3.4-1,4.4
	c-13.4,16-18,34.5-16.3,55c0.9,11.1,2.6,22,6.8,32.4c9.4,23.2,27.5,35.9,50.9,42.1c6.3,1.7,12.8,2.5,19.2,3.8
	c1.2,0.2,2.4,0.5,4.2,0.8c-6,6.5-9.1,13.8-10.7,22c-0.2,1-1.6,2.2-2.8,2.7c-20.1,8.5-37.8,2.8-49.5-15.5c-5.8-9.1-13.3-16-24.2-18.1
	c-2.7-0.5-5.7-0.4-8.4,0.2c-3.8,0.8-4.2,2.9-1.6,5.8c1.2,1.4,2.6,2.7,4.2,3.6c9.6,5.7,15.8,14.4,19.9,24.4
	c6.8,16.6,19.8,24.1,36.8,25.3c8,0.6,16.1-0.5,24.7-0.8c0,0.8,0.2,2.3,0.2,3.8c0.1,8.7,0.1,17.4,0.2,26.1c0.1,9.4-5.2,13.4-14,10.3
	c-37.6-13.2-68.2-35.9-90.4-69C-41.3,176.6,19.7,33.8,145.7,9.4C241.1-9,332.5,49.9,355.2,143.8c21.3,88.1-30.4,180.9-116.5,209.2
	c-8.7,2.9-13.9-0.8-13.9-10c0-14.4,0-28.8,0.2-43.2C225,286.5,223.2,273.9,213.4,263.5z"/>
</svg>
