<?xml version="1.0" encoding="utf-8"?>
<!-- Generator: Adobe Illustrator 19.1.0, SVG Export Plug-In . SVG Version: 6.00 Build 0)  -->
<svg version="1.1" id="Layer_1" xmlns="http://www.w3.org/2000/svg" xmlns:xlink="http://www.w3.org/1999/xlink" x="0px" y="0px"
	 viewBox="0 0 360 360" style="enable-background:new 0 0 360 360;" xml:space="preserve">
<style type="text/css">
	.st0{fill:#58595B;}
	.st1{fill:#FFFFFF;}
	.st2{fill:#E55462;}
</style>
<path class="st0" d="M180,0c98.8-0.6,181.6,80.8,180.1,182.7c-1.4,99-83.4,179.1-183.5,177.3C79.7,358.2-0.3,278.8,0,179.4
	C0.3,80.3,80.6,0,180,0z M195.1,266.7c0-1.9,0-3.5,0-5c0-21-0.2-41.9,0.1-62.9c0.1-5,1.1-10.2,2.9-14.8c3.6-9.2,12.7-13.7,23.5-12.6
	c9.6,1,15.6,6.4,17.8,16.4c0.8,3.8,1.3,7.8,1.3,11.7c0.1,20.7,0.1,41.3,0.1,62c0,1.7,0,3.4,0,5.2c13.3,0,26,0,38.7,0
	c0.1-0.7,0.3-1.1,0.3-1.5c0-28.1,0.1-56.2-0.1-84.2c-0.1-10.4-3-20.1-9.3-28.6c-16.5-22.3-53.5-22.4-71.8-0.3
	c-0.9,1.1-1.8,2.3-3.6,4.4c0-6.5,0-11.5,0-16.8c-12.6,0-24.9,0-37.4,0c0,42.4,0,84.7,0,127.1C170.1,266.7,182.3,266.7,195.1,266.7z
	 M131.6,266.6c0-42.6,0-84.8,0-127.1c-13,0-25.8,0-38.8,0c0,42.4,0,84.6,0,127.1C105.8,266.6,118.5,266.6,131.6,266.6z M112.3,75.6
	C99.6,75.5,89,86,88.9,98.9c-0.1,12.7,10.4,23.6,23.1,23.7c12.5,0.2,23.4-10.7,23.5-23.4C135.6,86.6,124.9,75.7,112.3,75.6z"/>
</svg>
