<?xml version="1.0" encoding="utf-8"?>
<!-- Generator: Adobe Illustrator 19.1.0, SVG Export Plug-In . SVG Version: 6.00 Build 0)  -->
<svg version="1.1" id="Layer_1" xmlns="http://www.w3.org/2000/svg" xmlns:xlink="http://www.w3.org/1999/xlink" x="0px" y="0px"
	 viewBox="0 0 360 360" style="enable-background:new 0 0 360 360;" xml:space="preserve">
<style type="text/css">
	.st0{fill:#58595B;}
	.st1{fill:#FFFFFF;}
	.st2{fill:#E55462;}
</style>
<path class="st0" d="M268.3,359.9c-9.4-0.3-19.5-1.9-29.4-4.5c-23-5.9-44.4-15.6-64.9-27.6c-23.1-13.5-44.3-29.5-64.4-47.1
	c-19.1-16.7-36.8-34.6-52.2-54.8C34.3,195.5,17,162.2,6.9,125.3C3.5,113,0.9,100.6,0.1,87.8c-0.7-11.3,1.6-22.1,6-32.5
	c6-14.1,15.5-25.7,27.2-35.5C40.9,13.5,49,8.1,57.8,3.6c5.9-3,12.4-4.1,19.1-3.3c2.1,0.3,3.8,1.1,5,3.1c15.5,25.4,31,50.8,46.4,76.2
	c3.2,5.2,3,10.5-0.8,15.6c-4.1,5.5-9.1,10.2-14.3,14.6c-6.9,5.8-13.9,11.5-20.7,17.3c-2.1,1.8-3.9,4.1-5.6,6.3
	c-2.2,2.8-2.8,6-2.1,9.6c1.7,8.5,5.3,16.2,9.7,23.6c7.4,12.6,16.6,23.7,26.8,34.1c17.7,18.2,37.4,34.3,57.4,49.9
	c10.8,8.4,21.9,16.5,33.9,23.3c1.9,1.1,3.9,1.9,5.9,2.7c3.5,1.3,6.6,0.5,9.6-1.5c4.5-3.1,7.9-7.2,11.2-11.3c6-7.5,11.9-15.1,18-22.5
	c2.2-2.6,4.9-4.8,7.6-7c5.1-4.1,10.5-3.9,16-0.8c6.7,3.9,13.5,7.7,20.2,11.7c17.7,10.4,35.3,21.1,53.2,31.3c5.2,3,6.3,6.9,5.7,12.1
	c-1,9-4.5,17.1-9,24.9c-11.2,19.4-27.6,32.6-48.5,40.4C291.7,357.8,280.7,360.1,268.3,359.9z"/>
</svg>
