<?xml version="1.0" encoding="utf-8"?>
<!-- Generator: Adobe Illustrator 19.1.0, SVG Export Plug-In . SVG Version: 6.00 Build 0)  -->
<svg version="1.1" id="Layer_1" xmlns="http://www.w3.org/2000/svg" xmlns:xlink="http://www.w3.org/1999/xlink" x="0px" y="0px"
	 viewBox="0 0 360 360" style="enable-background:new 0 0 360 360;" xml:space="preserve">
<style type="text/css">
	.st0{fill:#58595B;}
	.st1{fill:#FFFFFF;}
	.st2{fill:#E55462;}
</style>
<path class="st0" d="M324,106c0,1.6,0,3,0,4.4c0.2,7.8,0,15.7-0.7,23.5c-1.2,12.3-3.3,24.5-6.6,36.4c-8.6,31.5-23.2,59.9-44.4,84.8
	c-28.3,33.3-63.7,55.3-106.2,65.8c-9.9,2.4-19.9,4.1-30.1,5.1c-11.7,1.2-23.4,1.5-35.1,0.8c-20.9-1.1-41.3-5.3-61-12.5
	c-13.1-4.8-25.5-10.8-37.4-18.1c-0.9-0.5-1.7-1.1-2.6-1.6c0.2-0.8,0.8-0.6,1.2-0.5c2.3,0.2,4.5,0.4,6.8,0.5
	c35.7,1.6,68.1-7.9,97-28.9c1-0.7,2-1.3,2.9-2.5c-1-0.4-1.8-0.3-2.6-0.4c-0.9-0.1-1.9-0.2-2.8-0.3c-0.8-0.1-1.7-0.1-2.5-0.2
	c-0.9-0.1-1.9-0.3-2.8-0.5c-0.8-0.2-1.7-0.3-2.5-0.5c-0.9-0.2-1.8-0.4-2.8-0.6c-0.8-0.2-1.6-0.4-2.5-0.6c-0.9-0.3-1.8-0.6-2.7-0.8
	c-0.8-0.3-1.6-0.5-2.4-0.8c-0.9-0.3-1.8-0.7-2.6-1c-0.8-0.3-1.6-0.7-2.3-1c-0.9-0.4-1.7-0.8-2.6-1.2c-0.8-0.4-1.5-0.8-2.3-1.2
	c-0.8-0.4-1.7-0.9-2.5-1.4c-0.7-0.4-1.5-0.9-2.2-1.3c-0.8-0.5-1.6-1-2.4-1.6c-0.7-0.5-1.4-1-2.1-1.5c-0.7-0.5-1.4-1-2-1.6
	c-0.7-0.6-1.5-1.2-2.2-1.8c-0.6-0.6-1.3-1.1-1.9-1.7c-0.7-0.6-1.4-1.3-2-2c-0.6-0.6-1.2-1.2-1.8-1.8c-0.6-0.7-1.3-1.4-1.9-2.1
	c-0.6-0.6-1.1-1.3-1.6-1.9c-0.6-0.7-1.2-1.5-1.7-2.2c-0.5-0.7-1-1.4-1.5-2.1c-0.5-0.8-1.1-1.6-1.6-2.4c-0.5-0.7-0.9-1.4-1.3-2.2
	c-0.5-0.8-0.9-1.6-1.4-2.5c-0.4-0.7-0.8-1.5-1.2-2.3c-0.4-0.8-0.8-1.7-1.2-2.6c-0.4-0.8-0.7-1.6-1-2.3c-0.4-0.9-0.7-1.8-1-2.6
	c-0.3-0.8-0.5-1.6-0.8-2.6c0.5-0.1,0.9-0.2,1.2-0.1c5.3,1,10.7,1.2,16.1,1c4.5-0.2,9-0.9,13.4-1.8c0.5-0.1,1-0.4,1.9-0.7
	c-21.3-5.2-37.7-16.8-48.7-35.5c-6.8-11.4-11.3-29.1-9.8-37.9c2.7,0.9,5.1,2.5,7.7,3.4c2.7,0.9,5.3,2,8,2.7c2.6,0.7,5.3,1.3,8,1.8
	c2.7,0.5,5.5,1,8.7,0.6c-0.8-1-1.6-1.4-2.3-2c-0.8-0.6-1.6-1.3-2.4-1.9c-0.7-0.6-1.5-1.2-2.2-1.8c-0.7-0.6-1.4-1.3-2.1-1.9
	c-0.7-0.7-1.4-1.3-2-2c-0.7-0.7-1.4-1.5-2.1-2.3c-0.6-0.7-1.2-1.4-1.8-2.1c-0.6-0.7-1.2-1.5-1.8-2.2c-0.6-0.8-1.2-1.7-1.8-2.5
	c-0.5-0.8-1.1-1.6-1.6-2.3c-0.5-0.8-1-1.6-1.5-2.4c-0.5-0.8-1-1.6-1.4-2.5c-0.5-0.9-1-1.8-1.4-2.8c-0.4-0.8-0.8-1.7-1.2-2.6
	c-0.4-0.9-0.8-1.7-1.1-2.6c-0.4-1-0.7-1.9-1.1-2.9c-0.3-0.9-0.6-1.8-0.9-2.7c-0.3-0.9-0.5-1.8-0.8-2.7c-0.3-1-0.5-2-0.8-3
	c-0.2-0.9-0.4-1.8-0.6-2.8c-0.2-0.9-0.3-1.9-0.4-2.8c-0.1-0.9-0.2-1.9-0.3-2.8c-0.1-1-0.2-2.1-0.3-3.1c-0.1-0.9-0.1-1.9-0.1-2.8
	c0-0.9,0-1.9,0-2.8c0-1,0-2.1,0.1-3.1c0.1-0.9,0.2-1.9,0.3-2.8c0.1-0.9,0.1-1.9,0.3-2.8c0.1-0.9,0.3-1.9,0.4-2.8
	c0.2-1,0.4-2,0.6-3.1c0.2-0.9,0.4-1.8,0.6-2.8c0.2-0.9,0.5-1.8,0.7-2.7c0.3-1,0.6-2,0.9-3c0.3-0.9,0.6-1.8,1-2.7
	c0.3-0.9,0.7-1.8,1.1-2.6c0.4-0.9,0.8-1.7,1.2-2.6c0.4-0.9,0.9-1.9,1.4-2.8c0.4-0.8,0.9-1.6,1.5-2.4c1,0.5,1.5,1.4,2.1,2.1
	c9.1,10.8,19.1,20.6,30.2,29.4c25.6,20.3,54.3,34.1,86.3,41.2c10.6,2.3,21.3,3.9,32.2,4.5c0.7,0,1.5,0,2.4-0.1
	c-1-5.8-1.8-11.3-1.7-17c0.1-5.7,0.7-11.3,2-16.8c1.3-5.5,3.2-10.8,5.7-15.9c2.5-5.1,5.6-9.8,9.2-14.2c3.6-4.4,7.7-8.3,12.2-11.8
	c4.5-3.5,9.4-6.3,14.5-8.7c26.4-12.1,61.1-8.1,85,16.7c2.7-0.2,5.3-1,7.9-1.6c12.7-3.2,24.7-8,36.1-14.4c0.8-0.4,1.5-1.1,2.5-1.1
	c-0.5,4.6-6.1,15.4-11.8,22.6c-5.3,6.7-11.6,12.3-18.9,17c1.2,0.5,1.2,0.5,1.8,0.4c6.6-1,13.2-2.3,19.6-4.2
	c5.7-1.6,11.3-3.6,16.8-5.8c0.6-0.3,1.3-0.8,2.1-0.5c-1.3,3.3-9.4,13.5-16.2,20.5C337.7,95.1,331.1,100.8,324,106z"/>
</svg>
