<?xml version="1.0" encoding="utf-8"?>
<!-- Generator: Adobe Illustrator 19.1.0, SVG Export Plug-In . SVG Version: 6.00 Build 0)  -->
<svg version="1.1" id="Layer_1" xmlns="http://www.w3.org/2000/svg" xmlns:xlink="http://www.w3.org/1999/xlink" x="0px" y="0px"
	 viewBox="0 0 360 360" style="enable-background:new 0 0 360 360;" xml:space="preserve">
<style type="text/css">
	.st0{fill:#58595B;}
	.st1{fill:#FFFFFF;}
	.st2{fill:#E55462;}
</style>
<path class="st0" d="M360,179.7c0,99.1-80.7,179.8-179.8,179.7c-99.1,0-179.7-80.7-179.7-179.8C0.6,80.5,81.3-0.1,180.4,0
	C279.5,0.1,360,80.6,360,179.7z M188.9,171c22.9,0,45.6,0,68.4,0c0-0.3,0.1-0.5,0.1-0.8c-1-22.1-5.4-43.5-13.3-64.2
	c-0.5-1.2-1.2-1.3-2.3-1.3c-17,0-34,0-51.1,0c-0.6,0-1.2,0-1.8,0C188.9,127,188.9,148.9,188.9,171z M171.6,171c0-22.2,0-44.2,0-66.3
	c-0.7,0-1.2,0-1.8,0c-17,0-34,0-51.1,0c-1.4,0-2,0.5-2.5,1.8c-6.7,17.6-10.8,35.7-12.5,54.4c-0.3,3.3-0.4,6.7-0.7,10.1
	C126.1,171,148.8,171,171.6,171z M103.3,188.3c0,0.4-0.1,0.6,0,0.7c1,22.1,5.3,43.4,13.2,64.1c0.5,1.2,1.1,1.5,2.3,1.5
	c17.1,0,34.2,0,51.2,0c0.6,0,1.2-0.1,1.7-0.1c0-22.2,0-44.2,0-66.2C148.8,188.3,126.1,188.3,103.3,188.3z M188.9,254.5
	c0.5,0,0.9,0.1,1.2,0.1c17.4,0,34.7,0,52.1,0c1.1,0,1.5-0.4,1.9-1.4c7.9-20.6,12.3-42,13.3-64c0-0.3-0.1-0.6-0.1-0.9
	c-22.8,0-45.5,0-68.3,0C188.9,210.4,188.9,232.4,188.9,254.5z M261.7,104.7c7.7,21.6,11.9,43.6,12.8,66.2c20,0,39.8,0,59.5,0
	c0.1-0.2,0.1-0.3,0.1-0.5c0-0.4,0-0.9,0-1.3c-1.5-22.2-7.6-43.2-18.2-62.8c-0.7-1.2-1.4-1.7-2.8-1.7c-16.4,0.1-32.8,0-49.3,0
	C263.2,104.7,262.6,104.7,261.7,104.7z M98.8,104.9c-0.5-0.1-0.8-0.1-1.1-0.1c-17,0-33.9,0-50.9,0c-1,0-1.5,0.4-1.9,1.2
	c-9.5,17.4-15.4,35.9-17.7,55.6c-0.4,3.1-0.6,6.2-0.9,9.4c20.1,0,39.8,0,59.7,0c0.5-11.3,1.7-22.4,3.8-33.4
	C92,126.5,95,115.7,98.8,104.9z M274.5,188.3c-0.9,22.8-5.1,44.8-12.7,66.2c0.6,0,0.9,0.1,1.3,0.1c16.9,0,33.7,0,50.6,0
	c1.2,0,1.6-0.6,2.1-1.5c9.9-18.2,15.8-37.5,17.9-58.1c0.2-2.2,0.3-4.5,0.5-6.8C314.1,188.3,294.4,188.3,274.5,188.3z M86.1,188.3
	c-19.9,0-39.7,0-59.4,0c-0.1,0.2-0.2,0.3-0.2,0.4c0,0.5,0,1,0,1.5c1.5,22.2,7.6,43.1,18.2,62.8c0.6,1.2,1.3,1.6,2.7,1.6
	c16.5-0.1,32.9,0,49.4,0c0.6,0,1.2,0,2,0C95,243.8,92,233,89.9,222C87.8,211,86.5,199.8,86.1,188.3z M56.7,271.7
	c11.2,14.9,24.2,27.1,39.5,37.1c15.2,9.9,31.6,17,49.8,21.2c-0.6-0.7-0.8-1-1.1-1.2c-16-16.3-28.7-34.9-38.3-55.6
	c-0.5-1.1-1.1-1.4-2.2-1.4c-15.3,0-30.5,0-45.8,0C58,271.7,57.6,271.7,56.7,271.7z M215,329.6c17.9-3.9,34.4-10.9,49.6-20.9
	c15.2-10,28.2-22.2,39.3-37c-1.1,0-1.7,0-2.3,0c-14.9,0-29.8,0-44.8,0c-1.7,0-2.4,0.5-3.1,2c-9.5,20.4-22,38.7-37.7,54.8
	C215.7,328.8,215.3,329.2,215,329.6z M57,87.2c0,0.2,0.1,0.3,0.1,0.5c0.6,0,1.2,0,1.8,0c15,0,29.9,0,44.9,0c1.5,0,2.2-0.4,2.9-1.8
	c9.6-20.5,22.2-39,38.1-55.2c0.3-0.3,0.5-0.6,0.8-0.9C109.1,38.4,79.7,57.7,57,87.2z M215.1,29.9c0.1,0.2,0.2,0.4,0.4,0.5
	c16.2,16.4,29,35.2,38.7,56.1c0.5,1,1.1,1.2,2.1,1.2c15.3,0,30.6,0,45.9,0c0.4,0,0.9-0.1,1.7-0.2C280.8,57.7,251.4,38.4,215.1,29.9z
	 M171.7,271.8c-15.6,0-31.1,0-46.7,0c4.5,14.2,36.9,54.1,46.7,57.8C171.7,310.3,171.7,291.1,171.7,271.8z M188.9,329.9
	c20-16.1,35.3-35.5,46.9-58.2c-15.8,0-31.3,0-46.9,0C188.9,291.1,188.9,310.3,188.9,329.9z M188.9,29.5c0,19.6,0,38.8,0,58.1
	c15.6,0,31.1,0,46.9,0C224.2,64.9,208.9,45.5,188.9,29.5z M171.6,87.6c0-19.4,0-38.6,0-58.1c-20,16-35.2,35.4-46.8,58.1
	C140.6,87.6,156,87.6,171.6,87.6z"/>
</svg>
